<svg width="657" height="498" viewBox="0 0 657 498" fill="none" xmlns="http://www.w3.org/2000/svg">
<path d="M199.498 113.8V125H206.73V123.208H201.37V113.8H199.498ZM215.713 117.176H213.921V118.584C213.361 117.592 212.401 117.016 211.137 117.016C209.041 117.016 207.393 118.824 207.393 121.08C207.393 123.336 209.041 125.16 211.137 125.16C212.401 125.16 213.361 124.584 213.921 123.592V125H215.713V117.176ZM209.153 121.08C209.153 119.768 210.193 118.712 211.521 118.712C212.881 118.712 213.905 119.736 213.905 121.08C213.905 122.44 212.881 123.464 211.521 123.464C210.193 123.464 209.153 122.408 209.153 121.08ZM217.59 125H219.366V123.592C219.926 124.584 220.886 125.16 222.15 125.16C224.246 125.16 225.894 123.336 225.894 121.08C225.894 118.824 224.246 117.016 222.15 117.016C220.886 117.016 219.926 117.592 219.366 118.584V113.8H217.59V125ZM221.766 123.464C220.406 123.464 219.382 122.44 219.382 121.08C219.382 119.736 220.406 118.712 221.766 118.712C223.094 118.712 224.134 119.768 224.134 121.08C224.134 122.408 223.094 123.464 221.766 123.464ZM230.895 125.16C232.799 125.16 234.303 124.088 234.575 122.424H232.815C232.655 123.16 231.887 123.64 230.879 123.64C229.583 123.64 228.671 122.792 228.511 121.512H234.639C234.655 121.336 234.671 121 234.671 120.84C234.671 118.664 232.975 117.016 230.863 117.016C228.607 117.016 226.831 118.776 226.831 121.064C226.831 123.384 228.607 125.16 230.895 125.16ZM228.607 120.216C228.895 119.128 229.711 118.52 230.783 118.52C231.855 118.52 232.687 119.24 232.783 120.216H228.607ZM237.85 113.8H236.074V125H237.85V113.8Z" fill="#2F78C4"/>
<path d="M61.3435 113.8V125H68.5755V123.208H63.2155V113.8H61.3435ZM77.5585 117.176H75.7665V118.584C75.2065 117.592 74.2465 117.016 72.9825 117.016C70.8865 117.016 69.2385 118.824 69.2385 121.08C69.2385 123.336 70.8865 125.16 72.9825 125.16C74.2465 125.16 75.2065 124.584 75.7665 123.592V125H77.5585V117.176ZM70.9985 121.08C70.9985 119.768 72.0385 118.712 73.3665 118.712C74.7265 118.712 75.7505 119.736 75.7505 121.08C75.7505 122.44 74.7265 123.464 73.3665 123.464C72.0385 123.464 70.9985 122.408 70.9985 121.08ZM79.4353 125H81.2113V123.592C81.7713 124.584 82.7313 125.16 83.9953 125.16C86.0913 125.16 87.7393 123.336 87.7393 121.08C87.7393 118.824 86.0913 117.016 83.9953 117.016C82.7313 117.016 81.7713 117.592 81.2113 118.584V113.8H79.4353V125ZM83.6113 123.464C82.2513 123.464 81.2273 122.44 81.2273 121.08C81.2273 119.736 82.2513 118.712 83.6113 118.712C84.9393 118.712 85.9793 119.768 85.9793 121.08C85.9793 122.408 84.9393 123.464 83.6113 123.464ZM92.74 125.16C94.644 125.16 96.148 124.088 96.42 122.424H94.66C94.5 123.16 93.732 123.64 92.724 123.64C91.428 123.64 90.516 122.792 90.356 121.512H96.484C96.5 121.336 96.516 121 96.516 120.84C96.516 118.664 94.82 117.016 92.708 117.016C90.452 117.016 88.676 118.776 88.676 121.064C88.676 123.384 90.452 125.16 92.74 125.16ZM90.452 120.216C90.74 119.128 91.556 118.52 92.628 118.52C93.7 118.52 94.532 119.24 94.628 120.216H90.452ZM99.6957 113.8H97.9197V125H99.6957V113.8Z" fill="#2F78C4"/>
<path d="M29.9757 96.5H130.976V93.5H29.9757V96.5ZM131.476 97V141H134.476V97H131.476ZM130.976 141.5H29.9757V144.5H130.976V141.5ZM29.4757 141V97H26.4757V141H29.4757ZM29.9757 141.5C29.6996 141.5 29.4757 141.276 29.4757 141H26.4757C26.4757 142.933 28.0427 144.5 29.9757 144.5V141.5ZM131.476 141C131.476 141.276 131.252 141.5 130.976 141.5V144.5C132.909 144.5 134.476 142.933 134.476 141H131.476ZM130.976 96.5C131.252 96.5 131.476 96.7239 131.476 97H134.476C134.476 95.067 132.909 93.5 130.976 93.5V96.5ZM29.9757 93.5C28.0427 93.5 26.4757 95.067 26.4757 97H29.4757C29.4757 96.7239 29.6996 96.5 29.9757 96.5V93.5Z" fill="#2F78C4"/>
<path d="M314.655 97C314.655 95.8954 315.55 95 316.655 95H417.655C418.759 95 419.655 95.8954 419.655 97V141C419.655 142.105 418.759 143 417.655 143H316.655C315.55 143 314.655 142.105 314.655 141V97Z" fill="#E0EBF6"/>
<path d="M348.023 113.8V125H355.255V123.208H349.895V113.8H348.023ZM364.238 117.176H362.446V118.584C361.886 117.592 360.926 117.016 359.662 117.016C357.566 117.016 355.918 118.824 355.918 121.08C355.918 123.336 357.566 125.16 359.662 125.16C360.926 125.16 361.886 124.584 362.446 123.592V125H364.238V117.176ZM357.678 121.08C357.678 119.768 358.718 118.712 360.046 118.712C361.406 118.712 362.43 119.736 362.43 121.08C362.43 122.44 361.406 123.464 360.046 123.464C358.718 123.464 357.678 122.408 357.678 121.08ZM366.114 125H367.89V123.592C368.45 124.584 369.41 125.16 370.674 125.16C372.77 125.16 374.418 123.336 374.418 121.08C374.418 118.824 372.77 117.016 370.674 117.016C369.41 117.016 368.45 117.592 367.89 118.584V113.8H366.114V125ZM370.29 123.464C368.93 123.464 367.906 122.44 367.906 121.08C367.906 119.736 368.93 118.712 370.29 118.712C371.618 118.712 372.658 119.768 372.658 121.08C372.658 122.408 371.618 123.464 370.29 123.464ZM379.419 125.16C381.323 125.16 382.827 124.088 383.099 122.424H381.339C381.179 123.16 380.411 123.64 379.403 123.64C378.107 123.64 377.195 122.792 377.035 121.512H383.163C383.179 121.336 383.195 121 383.195 120.84C383.195 118.664 381.499 117.016 379.387 117.016C377.131 117.016 375.355 118.776 375.355 121.064C375.355 123.384 377.131 125.16 379.419 125.16ZM377.131 120.216C377.419 119.128 378.235 118.52 379.307 118.52C380.379 118.52 381.211 119.24 381.307 120.216H377.131ZM386.375 113.8H384.599V125H386.375V113.8Z" fill="#2F78C4"/>
<path d="M316.655 96.5H417.655V93.5H316.655V96.5ZM418.155 97V141H421.155V97H418.155ZM417.655 141.5H316.655V144.5H417.655V141.5ZM316.155 141V97H313.155V141H316.155ZM316.655 141.5C316.379 141.5 316.155 141.276 316.155 141H313.155C313.155 142.933 314.722 144.5 316.655 144.5V141.5ZM418.155 141C418.155 141.276 417.931 141.5 417.655 141.5V144.5C419.588 144.5 421.155 142.933 421.155 141H418.155ZM417.655 96.5C417.931 96.5 418.155 96.7239 418.155 97H421.155C421.155 95.067 419.588 93.5 417.655 93.5V96.5ZM316.655 93.5C314.722 93.5 313.155 95.067 313.155 97H316.155C316.155 96.7239 316.379 96.5 316.655 96.5V93.5Z" fill="#2F78C4"/>
<g opacity="0.3">
<path d="M500.998 113.8V125H508.23V123.208H502.87V113.8H500.998ZM517.213 117.176H515.421V118.584C514.861 117.592 513.901 117.016 512.637 117.016C510.541 117.016 508.893 118.824 508.893 121.08C508.893 123.336 510.541 125.16 512.637 125.16C513.901 125.16 514.861 124.584 515.421 123.592V125H517.213V117.176ZM510.653 121.08C510.653 119.768 511.693 118.712 513.021 118.712C514.381 118.712 515.405 119.736 515.405 121.08C515.405 122.44 514.381 123.464 513.021 123.464C511.693 123.464 510.653 122.408 510.653 121.08ZM519.09 125H520.866V123.592C521.426 124.584 522.386 125.16 523.65 125.16C525.746 125.16 527.394 123.336 527.394 121.08C527.394 118.824 525.746 117.016 523.65 117.016C522.386 117.016 521.426 117.592 520.866 118.584V113.8H519.09V125ZM523.266 123.464C521.906 123.464 520.882 122.44 520.882 121.08C520.882 119.736 521.906 118.712 523.266 118.712C524.594 118.712 525.634 119.768 525.634 121.08C525.634 122.408 524.594 123.464 523.266 123.464ZM532.395 125.16C534.299 125.16 535.803 124.088 536.075 122.424H534.315C534.155 123.16 533.387 123.64 532.379 123.64C531.083 123.64 530.171 122.792 530.011 121.512H536.139C536.155 121.336 536.171 121 536.171 120.84C536.171 118.664 534.475 117.016 532.363 117.016C530.107 117.016 528.331 118.776 528.331 121.064C528.331 123.384 530.107 125.16 532.395 125.16ZM530.107 120.216C530.395 119.128 531.211 118.52 532.283 118.52C533.355 118.52 534.187 119.24 534.283 120.216H530.107ZM539.35 113.8H537.574V125H539.35V113.8Z" fill="#2F78C4"/>
<path d="M469.63 96.5H570.63V93.5H469.63V96.5ZM571.13 97V141H574.13V97H571.13ZM570.63 141.5H469.63V144.5H570.63V141.5ZM469.13 141V97H466.13V141H469.13ZM469.63 141.5C469.354 141.5 469.13 141.276 469.13 141H466.13C466.13 142.933 467.697 144.5 469.63 144.5V141.5ZM571.13 141C571.13 141.276 570.907 141.5 570.63 141.5V144.5C572.563 144.5 574.13 142.933 574.13 141H571.13ZM570.63 96.5C570.907 96.5 571.13 96.7239 571.13 97H574.13C574.13 95.067 572.563 93.5 570.63 93.5V96.5ZM469.63 93.5C467.697 93.5 466.13 95.067 466.13 97H469.13C469.13 96.7239 469.354 96.5 469.63 96.5V93.5Z" fill="#2F78C4"/>
</g>
<g opacity="0.3">
<path d="M467.63 22C467.63 20.8954 468.526 20 469.63 20H570.63C571.735 20 572.63 20.8954 572.63 22V66C572.63 67.1046 571.735 68 570.63 68H469.63C468.526 68 467.63 67.1046 467.63 66V22Z" fill="#2F78C4"/>
<path d="M500.998 38.8V50H508.23V48.208H502.87V38.8H500.998ZM517.213 42.176H515.421V43.584C514.861 42.592 513.901 42.016 512.637 42.016C510.541 42.016 508.893 43.824 508.893 46.08C508.893 48.336 510.541 50.16 512.637 50.16C513.901 50.16 514.861 49.584 515.421 48.592V50H517.213V42.176ZM510.653 46.08C510.653 44.768 511.693 43.712 513.021 43.712C514.381 43.712 515.405 44.736 515.405 46.08C515.405 47.44 514.381 48.464 513.021 48.464C511.693 48.464 510.653 47.408 510.653 46.08ZM519.09 50H520.866V48.592C521.426 49.584 522.386 50.16 523.65 50.16C525.746 50.16 527.394 48.336 527.394 46.08C527.394 43.824 525.746 42.016 523.65 42.016C522.386 42.016 521.426 42.592 520.866 43.584V38.8H519.09V50ZM523.266 48.464C521.906 48.464 520.882 47.44 520.882 46.08C520.882 44.736 521.906 43.712 523.266 43.712C524.594 43.712 525.634 44.768 525.634 46.08C525.634 47.408 524.594 48.464 523.266 48.464ZM532.395 50.16C534.299 50.16 535.803 49.088 536.075 47.424H534.315C534.155 48.16 533.387 48.64 532.379 48.64C531.083 48.64 530.171 47.792 530.011 46.512H536.139C536.155 46.336 536.171 46 536.171 45.84C536.171 43.664 534.475 42.016 532.363 42.016C530.107 42.016 528.331 43.776 528.331 46.064C528.331 48.384 530.107 50.16 532.395 50.16ZM530.107 45.216C530.395 44.128 531.211 43.52 532.283 43.52C533.355 43.52 534.187 44.24 534.283 45.216H530.107ZM539.35 38.8H537.574V50H539.35V38.8Z" fill="white"/>
</g>
<path d="M27.9758 22C27.9758 20.8954 28.8713 20 29.9758 20H130.976C132.08 20 132.976 20.8954 132.976 22V66C132.976 67.1046 132.08 68 130.976 68H29.9758C28.8713 68 27.9758 67.1046 27.9758 66V22Z" fill="#2F78C4"/>
<path d="M61.3436 38.8V50H68.5756V48.208H63.2156V38.8H61.3436ZM77.5586 42.176H75.7666V43.584C75.2066 42.592 74.2466 42.016 72.9826 42.016C70.8866 42.016 69.2386 43.824 69.2386 46.08C69.2386 48.336 70.8866 50.16 72.9826 50.16C74.2466 50.16 75.2066 49.584 75.7666 48.592V50H77.5586V42.176ZM70.9986 46.08C70.9986 44.768 72.0386 43.712 73.3666 43.712C74.7266 43.712 75.7506 44.736 75.7506 46.08C75.7506 47.44 74.7266 48.464 73.3666 48.464C72.0386 48.464 70.9986 47.408 70.9986 46.08ZM79.4355 50H81.2115V48.592C81.7715 49.584 82.7315 50.16 83.9955 50.16C86.0915 50.16 87.7395 48.336 87.7395 46.08C87.7395 43.824 86.0915 42.016 83.9955 42.016C82.7315 42.016 81.7715 42.592 81.2115 43.584V38.8H79.4355V50ZM83.6115 48.464C82.2515 48.464 81.2275 47.44 81.2275 46.08C81.2275 44.736 82.2515 43.712 83.6115 43.712C84.9395 43.712 85.9795 44.768 85.9795 46.08C85.9795 47.408 84.9395 48.464 83.6115 48.464ZM92.7401 50.16C94.6441 50.16 96.1481 49.088 96.4201 47.424H94.6601C94.5001 48.16 93.7321 48.64 92.7241 48.64C91.4281 48.64 90.5161 47.792 90.3561 46.512H96.4841C96.5001 46.336 96.5161 46 96.5161 45.84C96.5161 43.664 94.8201 42.016 92.7081 42.016C90.4521 42.016 88.6761 43.776 88.6761 46.064C88.6761 48.384 90.4521 50.16 92.7401 50.16ZM90.4521 45.216C90.7401 44.128 91.5561 43.52 92.6281 43.52C93.7001 43.52 94.5321 44.24 94.6281 45.216H90.4521ZM99.6958 38.8H97.9198V50H99.6958V38.8Z" fill="white"/>
<path d="M166.13 22C166.13 20.8954 167.026 20 168.13 20H269.13C270.235 20 271.13 20.8954 271.13 22V66C271.13 67.1046 270.235 68 269.13 68H168.13C167.026 68 166.13 67.1046 166.13 66V22Z" fill="white"/>
<path d="M199.498 38.8V50H206.73V48.208H201.37V38.8H199.498ZM215.713 42.176H213.921V43.584C213.361 42.592 212.401 42.016 211.137 42.016C209.041 42.016 207.393 43.824 207.393 46.08C207.393 48.336 209.041 50.16 211.137 50.16C212.401 50.16 213.361 49.584 213.921 48.592V50H215.713V42.176ZM209.153 46.08C209.153 44.768 210.193 43.712 211.521 43.712C212.881 43.712 213.905 44.736 213.905 46.08C213.905 47.44 212.881 48.464 211.521 48.464C210.193 48.464 209.153 47.408 209.153 46.08ZM217.59 50H219.366V48.592C219.926 49.584 220.886 50.16 222.15 50.16C224.246 50.16 225.894 48.336 225.894 46.08C225.894 43.824 224.246 42.016 222.15 42.016C220.886 42.016 219.926 42.592 219.366 43.584V38.8H217.59V50ZM221.766 48.464C220.406 48.464 219.382 47.44 219.382 46.08C219.382 44.736 220.406 43.712 221.766 43.712C223.094 43.712 224.134 44.768 224.134 46.08C224.134 47.408 223.094 48.464 221.766 48.464ZM230.895 50.16C232.799 50.16 234.303 49.088 234.575 47.424H232.815C232.655 48.16 231.887 48.64 230.879 48.64C229.583 48.64 228.671 47.792 228.511 46.512H234.639C234.655 46.336 234.671 46 234.671 45.84C234.671 43.664 232.975 42.016 230.863 42.016C228.607 42.016 226.831 43.776 226.831 46.064C226.831 48.384 228.607 50.16 230.895 50.16ZM228.607 45.216C228.895 44.128 229.711 43.52 230.783 43.52C231.855 43.52 232.687 44.24 232.783 45.216H228.607ZM237.85 38.8H236.074V50H237.85V38.8Z" fill="#2F78C4"/>
<path d="M312.26 22C312.26 20.8954 313.156 20 314.26 20H415.26C416.365 20 417.26 20.8954 417.26 22V66C417.26 67.1046 416.365 68 415.26 68H314.26C313.156 68 312.26 67.1046 312.26 66V22Z" fill="#E0EBF6"/>
<path d="M345.628 38.8V50H352.86V48.208H347.5V38.8H345.628ZM361.843 42.176H360.051V43.584C359.491 42.592 358.531 42.016 357.267 42.016C355.171 42.016 353.523 43.824 353.523 46.08C353.523 48.336 355.171 50.16 357.267 50.16C358.531 50.16 359.491 49.584 360.051 48.592V50H361.843V42.176ZM355.283 46.08C355.283 44.768 356.323 43.712 357.651 43.712C359.011 43.712 360.035 44.736 360.035 46.08C360.035 47.44 359.011 48.464 357.651 48.464C356.323 48.464 355.283 47.408 355.283 46.08ZM363.72 50H365.496V48.592C366.056 49.584 367.016 50.16 368.28 50.16C370.376 50.16 372.024 48.336 372.024 46.08C372.024 43.824 370.376 42.016 368.28 42.016C367.016 42.016 366.056 42.592 365.496 43.584V38.8H363.72V50ZM367.896 48.464C366.536 48.464 365.512 47.44 365.512 46.08C365.512 44.736 366.536 43.712 367.896 43.712C369.224 43.712 370.264 44.768 370.264 46.08C370.264 47.408 369.224 48.464 367.896 48.464ZM377.025 50.16C378.929 50.16 380.433 49.088 380.705 47.424H378.945C378.785 48.16 378.017 48.64 377.009 48.64C375.713 48.64 374.801 47.792 374.641 46.512H380.769C380.785 46.336 380.801 46 380.801 45.84C380.801 43.664 379.105 42.016 376.993 42.016C374.737 42.016 372.961 43.776 372.961 46.064C372.961 48.384 374.737 50.16 377.025 50.16ZM374.737 45.216C375.025 44.128 375.841 43.52 376.913 43.52C377.985 43.52 378.817 44.24 378.913 45.216H374.737ZM383.98 38.8H382.204V50H383.98V38.8Z" fill="#222222"/>
<path d="M20 307C20 305.895 20.8954 305 22 305H148.976C150.08 305 150.976 305.895 150.976 307V351C150.976 352.105 150.08 353 148.976 353H22C20.8954 353 20 352.105 20 351V307Z" fill="#2F78C4"/>
<path d="M52.9168 321.929C49.0277 325.818 49.0277 332.182 52.9168 336.071C56.8059 339.96 63.1699 339.96 67.059 336.071C70.948 332.182 70.948 325.818 67.059 321.929C63.1699 318.04 56.8059 318.04 52.9168 321.929ZM64.9376 327.763V330.237L61.2253 330.237V333.95L58.7504 333.95V330.237L55.0381 330.237V327.763L58.7504 327.763V324.05L61.2253 324.05V327.763L64.9376 327.763Z" fill="#E0EBF6"/>
<path d="M81.3436 323.8V335H88.5756V333.208H83.2156V323.8H81.3436ZM97.5586 327.176H95.7666V328.584C95.2066 327.592 94.2466 327.016 92.9826 327.016C90.8866 327.016 89.2386 328.824 89.2386 331.08C89.2386 333.336 90.8866 335.16 92.9826 335.16C94.2466 335.16 95.2066 334.584 95.7666 333.592V335H97.5586V327.176ZM90.9986 331.08C90.9986 329.768 92.0386 328.712 93.3666 328.712C94.7266 328.712 95.7506 329.736 95.7506 331.08C95.7506 332.44 94.7266 333.464 93.3666 333.464C92.0386 333.464 90.9986 332.408 90.9986 331.08ZM99.4355 335H101.211V333.592C101.771 334.584 102.731 335.16 103.995 335.16C106.091 335.16 107.739 333.336 107.739 331.08C107.739 328.824 106.091 327.016 103.995 327.016C102.731 327.016 101.771 327.592 101.211 328.584V323.8H99.4355V335ZM103.611 333.464C102.251 333.464 101.227 332.44 101.227 331.08C101.227 329.736 102.251 328.712 103.611 328.712C104.939 328.712 105.979 329.768 105.979 331.08C105.979 332.408 104.939 333.464 103.611 333.464ZM112.74 335.16C114.644 335.16 116.148 334.088 116.42 332.424H114.66C114.5 333.16 113.732 333.64 112.724 333.64C111.428 333.64 110.516 332.792 110.356 331.512H116.484C116.5 331.336 116.516 331 116.516 330.84C116.516 328.664 114.82 327.016 112.708 327.016C110.452 327.016 108.676 328.776 108.676 331.064C108.676 333.384 110.452 335.16 112.74 335.16ZM110.452 330.216C110.74 329.128 111.556 328.52 112.628 328.52C113.7 328.52 114.532 329.24 114.628 330.216H110.452ZM119.696 323.8H117.92V335H119.696V323.8Z" fill="white"/>
<path d="M52.9168 410.929C49.0277 414.818 49.0277 421.182 52.9168 425.071C56.8059 428.96 63.1699 428.96 67.059 425.071C70.948 421.182 70.948 414.818 67.059 410.929C63.1699 407.04 56.8059 407.04 52.9168 410.929ZM64.9376 416.763V419.237L61.2253 419.237V422.95L58.7504 422.95V419.237L55.0381 419.237V416.763L58.7504 416.763V413.05L61.2253 413.05V416.763L64.9376 416.763Z" fill="#2F78C4"/>
<path d="M81.3435 412.8V424H88.5755V422.208H83.2155V412.8H81.3435ZM97.5585 416.176H95.7665V417.584C95.2065 416.592 94.2465 416.016 92.9825 416.016C90.8865 416.016 89.2385 417.824 89.2385 420.08C89.2385 422.336 90.8865 424.16 92.9825 424.16C94.2465 424.16 95.2065 423.584 95.7665 422.592V424H97.5585V416.176ZM90.9985 420.08C90.9985 418.768 92.0385 417.712 93.3665 417.712C94.7265 417.712 95.7505 418.736 95.7505 420.08C95.7505 421.44 94.7265 422.464 93.3665 422.464C92.0385 422.464 90.9985 421.408 90.9985 420.08ZM99.4353 424H101.211V422.592C101.771 423.584 102.731 424.16 103.995 424.16C106.091 424.16 107.739 422.336 107.739 420.08C107.739 417.824 106.091 416.016 103.995 416.016C102.731 416.016 101.771 416.592 101.211 417.584V412.8H99.4353V424ZM103.611 422.464C102.251 422.464 101.227 421.44 101.227 420.08C101.227 418.736 102.251 417.712 103.611 417.712C104.939 417.712 105.979 418.768 105.979 420.08C105.979 421.408 104.939 422.464 103.611 422.464ZM112.74 424.16C114.644 424.16 116.148 423.088 116.42 421.424H114.66C114.5 422.16 113.732 422.64 112.724 422.64C111.428 422.64 110.516 421.792 110.356 420.512H116.484C116.5 420.336 116.516 420 116.516 419.84C116.516 417.664 114.82 416.016 112.708 416.016C110.452 416.016 108.676 417.776 108.676 420.064C108.676 422.384 110.452 424.16 112.74 424.16ZM110.452 419.216C110.74 418.128 111.556 417.52 112.628 417.52C113.7 417.52 114.532 418.24 114.628 419.216H110.452ZM119.696 412.8H117.92V424H119.696V412.8Z" fill="#2F78C4"/>
<path d="M22 394H148.976V392H22V394ZM149.976 395V439H151.976V395H149.976ZM148.976 440H22V442H148.976V440ZM21 439V395H19V439H21ZM22 440C21.4477 440 21 439.552 21 439H19C19 440.657 20.3431 442 22 442V440ZM149.976 439C149.976 439.552 149.528 440 148.976 440V442C150.633 442 151.976 440.657 151.976 439H149.976ZM148.976 394C149.528 394 149.976 394.448 149.976 395H151.976C151.976 393.343 150.633 392 148.976 392V394ZM22 392C20.3431 392 19 393.343 19 395H21C21 394.448 21.4477 394 22 394V392Z" fill="#2F78C4"/>
<path d="M210.287 410.929C206.398 414.818 206.398 421.182 210.287 425.071C214.177 428.96 220.54 428.96 224.43 425.071C228.319 421.182 228.319 414.818 224.43 410.929C220.54 407.04 214.177 407.04 210.287 410.929ZM222.308 416.763V419.237H218.596V422.95H216.121V419.237H212.409V416.763H216.121V413.05H218.596V416.763H222.308Z" fill="#2F78C4"/>
<path d="M238.714 412.8V424H245.946V422.208H240.586V412.8H238.714ZM254.929 416.176H253.137V417.584C252.577 416.592 251.617 416.016 250.353 416.016C248.257 416.016 246.609 417.824 246.609 420.08C246.609 422.336 248.257 424.16 250.353 424.16C251.617 424.16 252.577 423.584 253.137 422.592V424H254.929V416.176ZM248.369 420.08C248.369 418.768 249.409 417.712 250.737 417.712C252.097 417.712 253.121 418.736 253.121 420.08C253.121 421.44 252.097 422.464 250.737 422.464C249.409 422.464 248.369 421.408 248.369 420.08ZM256.806 424H258.582V422.592C259.142 423.584 260.102 424.16 261.366 424.16C263.462 424.16 265.11 422.336 265.11 420.08C265.11 417.824 263.462 416.016 261.366 416.016C260.102 416.016 259.142 416.592 258.582 417.584V412.8H256.806V424ZM260.982 422.464C259.622 422.464 258.598 421.44 258.598 420.08C258.598 418.736 259.622 417.712 260.982 417.712C262.31 417.712 263.35 418.768 263.35 420.08C263.35 421.408 262.31 422.464 260.982 422.464ZM270.111 424.16C272.015 424.16 273.519 423.088 273.791 421.424H272.031C271.871 422.16 271.103 422.64 270.095 422.64C268.799 422.64 267.887 421.792 267.727 420.512H273.855C273.871 420.336 273.887 420 273.887 419.84C273.887 417.664 272.191 416.016 270.079 416.016C267.823 416.016 266.047 417.776 266.047 420.064C266.047 422.384 267.823 424.16 270.111 424.16ZM267.823 419.216C268.111 418.128 268.927 417.52 269.999 417.52C271.071 417.52 271.903 418.24 271.999 419.216H267.823ZM277.066 412.8H275.29V424H277.066V412.8Z" fill="#2F78C4"/>
<path d="M334.741 395C334.741 393.895 335.636 393 336.741 393H463.716C464.821 393 465.716 393.895 465.716 395V439C465.716 440.105 464.821 441 463.716 441H336.741C335.636 441 334.741 440.105 334.741 439V395Z" fill="#E0EBF6"/>
<path d="M367.658 410.929C363.768 414.818 363.768 421.182 367.658 425.071C371.547 428.96 377.911 428.96 381.8 425.071C385.689 421.182 385.689 414.818 381.8 410.929C377.911 407.04 371.547 407.04 367.658 410.929ZM379.678 416.763V419.237H375.966V422.95H373.491V419.237H369.779V416.763H373.491V413.05H375.966V416.763H379.678Z" fill="#2F78C4"/>
<path d="M396.084 412.8V424H403.316V422.208H397.956V412.8H396.084ZM412.299 416.176H410.507V417.584C409.947 416.592 408.987 416.016 407.723 416.016C405.627 416.016 403.979 417.824 403.979 420.08C403.979 422.336 405.627 424.16 407.723 424.16C408.987 424.16 409.947 423.584 410.507 422.592V424H412.299V416.176ZM405.739 420.08C405.739 418.768 406.779 417.712 408.107 417.712C409.467 417.712 410.491 418.736 410.491 420.08C410.491 421.44 409.467 422.464 408.107 422.464C406.779 422.464 405.739 421.408 405.739 420.08ZM414.176 424H415.952V422.592C416.512 423.584 417.472 424.16 418.736 424.16C420.832 424.16 422.48 422.336 422.48 420.08C422.48 417.824 420.832 416.016 418.736 416.016C417.472 416.016 416.512 416.592 415.952 417.584V412.8H414.176V424ZM418.352 422.464C416.992 422.464 415.968 421.44 415.968 420.08C415.968 418.736 416.992 417.712 418.352 417.712C419.68 417.712 420.72 418.768 420.72 420.08C420.72 421.408 419.68 422.464 418.352 422.464ZM427.481 424.16C429.385 424.16 430.889 423.088 431.161 421.424H429.401C429.241 422.16 428.473 422.64 427.465 422.64C426.169 422.64 425.257 421.792 425.097 420.512H431.225C431.241 420.336 431.257 420 431.257 419.84C431.257 417.664 429.561 416.016 427.449 416.016C425.193 416.016 423.417 417.776 423.417 420.064C423.417 422.384 425.193 424.16 427.481 424.16ZM425.193 419.216C425.481 418.128 426.297 417.52 427.369 417.52C428.441 417.52 429.273 418.24 429.369 419.216H425.193ZM434.436 412.8H432.66V424H434.436V412.8Z" fill="#2F78C4"/>
<path d="M336.741 394H463.716V392H336.741V394ZM464.716 395V439H466.716V395H464.716ZM463.716 440H336.741V442H463.716V440ZM335.741 439V395H333.741V439H335.741ZM336.741 440C336.188 440 335.741 439.552 335.741 439H333.741C333.741 440.657 335.084 442 336.741 442V440ZM464.716 439C464.716 439.552 464.269 440 463.716 440V442C465.373 442 466.716 440.657 466.716 439H464.716ZM463.716 394C464.269 394 464.716 394.448 464.716 395H466.716C466.716 393.343 465.373 392 463.716 392V394ZM336.741 392C335.084 392 333.741 393.343 333.741 395H335.741C335.741 394.448 336.188 394 336.741 394V392Z" fill="#2F78C4"/>
<g opacity="0.3">
<path d="M515.868 410.929C511.979 414.818 511.979 421.182 515.868 425.071C519.758 428.96 526.122 428.96 530.011 425.071C533.9 421.182 533.9 414.818 530.011 410.929C526.122 407.04 519.758 407.04 515.868 410.929ZM527.889 416.763V419.237H524.177V422.95H521.702V419.237H517.99V416.763H521.702V413.05H524.177V416.763H527.889Z" fill="#2F78C4"/>
<path d="M544.295 412.8V424H551.527V422.208H546.167V412.8H544.295ZM560.51 416.176H558.718V417.584C558.158 416.592 557.198 416.016 555.934 416.016C553.838 416.016 552.19 417.824 552.19 420.08C552.19 422.336 553.838 424.16 555.934 424.16C557.198 424.16 558.158 423.584 558.718 422.592V424H560.51V416.176ZM553.95 420.08C553.95 418.768 554.99 417.712 556.318 417.712C557.678 417.712 558.702 418.736 558.702 420.08C558.702 421.44 557.678 422.464 556.318 422.464C554.99 422.464 553.95 421.408 553.95 420.08ZM562.387 424H564.163V422.592C564.723 423.584 565.683 424.16 566.947 424.16C569.043 424.16 570.691 422.336 570.691 420.08C570.691 417.824 569.043 416.016 566.947 416.016C565.683 416.016 564.723 416.592 564.163 417.584V412.8H562.387V424ZM566.563 422.464C565.203 422.464 564.179 421.44 564.179 420.08C564.179 418.736 565.203 417.712 566.563 417.712C567.891 417.712 568.931 418.768 568.931 420.08C568.931 421.408 567.891 422.464 566.563 422.464ZM575.692 424.16C577.596 424.16 579.1 423.088 579.372 421.424H577.612C577.452 422.16 576.684 422.64 575.676 422.64C574.38 422.64 573.468 421.792 573.308 420.512H579.436C579.452 420.336 579.468 420 579.468 419.84C579.468 417.664 577.772 416.016 575.66 416.016C573.404 416.016 571.628 417.776 571.628 420.064C571.628 422.384 573.404 424.16 575.692 424.16ZM573.404 419.216C573.692 418.128 574.508 417.52 575.58 417.52C576.652 417.52 577.484 418.24 577.58 419.216H573.404ZM582.647 412.8H580.871V424H582.647V412.8Z" fill="#2F78C4"/>
<path d="M484.952 394H611.927V392H484.952V394ZM612.927 395V439H614.927V395H612.927ZM611.927 440H484.952V442H611.927V440ZM483.952 439V395H481.952V439H483.952ZM484.952 440C484.399 440 483.952 439.552 483.952 439H481.952C481.952 440.657 483.295 442 484.952 442V440ZM612.927 439C612.927 439.552 612.48 440 611.927 440V442C613.584 442 614.927 440.657 614.927 439H612.927ZM611.927 394C612.48 394 612.927 394.448 612.927 395H614.927C614.927 393.343 613.584 392 611.927 392V394ZM484.952 392C483.295 392 481.952 393.343 481.952 395H483.952C483.952 394.448 484.399 394 484.952 394V392Z" fill="#2F78C4"/>
</g>
<g opacity="0.3">
<path d="M483.31 307C483.31 305.895 484.205 305 485.31 305H612.285C613.39 305 614.285 305.895 614.285 307V351C614.285 352.105 613.39 353 612.285 353H485.31C484.205 353 483.31 352.105 483.31 351V307Z" fill="#2F78C4"/>
<path d="M516.226 321.929C512.337 325.818 512.337 332.182 516.226 336.071C520.115 339.96 526.479 339.96 530.369 336.071C534.258 332.182 534.258 325.818 530.369 321.929C526.479 318.04 520.115 318.04 516.226 321.929ZM528.247 327.763V330.237L524.535 330.237V333.95L522.06 333.95V330.237L518.348 330.237V327.763L522.06 327.763V324.05L524.535 324.05V327.763L528.247 327.763Z" fill="#F7D9F1"/>
<path d="M544.653 323.8V335H551.885V333.208H546.525V323.8H544.653ZM560.868 327.176H559.076V328.584C558.516 327.592 557.556 327.016 556.292 327.016C554.196 327.016 552.548 328.824 552.548 331.08C552.548 333.336 554.196 335.16 556.292 335.16C557.556 335.16 558.516 334.584 559.076 333.592V335H560.868V327.176ZM554.308 331.08C554.308 329.768 555.348 328.712 556.676 328.712C558.036 328.712 559.06 329.736 559.06 331.08C559.06 332.44 558.036 333.464 556.676 333.464C555.348 333.464 554.308 332.408 554.308 331.08ZM562.745 335H564.521V333.592C565.081 334.584 566.041 335.16 567.305 335.16C569.401 335.16 571.049 333.336 571.049 331.08C571.049 328.824 569.401 327.016 567.305 327.016C566.041 327.016 565.081 327.592 564.521 328.584V323.8H562.745V335ZM566.921 333.464C565.561 333.464 564.537 332.44 564.537 331.08C564.537 329.736 565.561 328.712 566.921 328.712C568.249 328.712 569.289 329.768 569.289 331.08C569.289 332.408 568.249 333.464 566.921 333.464ZM576.05 335.16C577.954 335.16 579.458 334.088 579.73 332.424H577.97C577.81 333.16 577.042 333.64 576.034 333.64C574.738 333.64 573.826 332.792 573.666 331.512H579.794C579.81 331.336 579.826 331 579.826 330.84C579.826 328.664 578.13 327.016 576.018 327.016C573.762 327.016 571.986 328.776 571.986 331.064C571.986 333.384 573.762 335.16 576.05 335.16ZM573.762 330.216C574.05 329.128 574.866 328.52 575.938 328.52C577.01 328.52 577.842 329.24 577.938 330.216H573.762ZM583.005 323.8H581.229V335H583.005V323.8Z" fill="white"/>
</g>
<path d="M177.371 308C177.371 306.895 178.266 306 179.371 306H306.346C307.451 306 308.346 306.895 308.346 308V352C308.346 353.105 307.451 354 306.346 354H179.371C178.266 354 177.371 353.105 177.371 352V308Z" fill="white"/>
<path opacity="0.15" d="M210.287 322.929C206.398 326.818 206.398 333.182 210.287 337.071C214.177 340.96 220.54 340.96 224.43 337.071C228.319 333.182 228.319 326.818 224.43 322.929C220.54 319.04 214.177 319.04 210.287 322.929ZM222.308 328.763V331.237H218.596V334.95H216.121V331.237H212.409V328.763H216.121V325.05H218.596V328.763H222.308Z" fill="#2F78C4"/>
<path d="M238.714 324.8V336H245.946V334.208H240.586V324.8H238.714ZM254.929 328.176H253.137V329.584C252.577 328.592 251.617 328.016 250.353 328.016C248.257 328.016 246.609 329.824 246.609 332.08C246.609 334.336 248.257 336.16 250.353 336.16C251.617 336.16 252.577 335.584 253.137 334.592V336H254.929V328.176ZM248.369 332.08C248.369 330.768 249.409 329.712 250.737 329.712C252.097 329.712 253.121 330.736 253.121 332.08C253.121 333.44 252.097 334.464 250.737 334.464C249.409 334.464 248.369 333.408 248.369 332.08ZM256.806 336H258.582V334.592C259.142 335.584 260.102 336.16 261.366 336.16C263.462 336.16 265.11 334.336 265.11 332.08C265.11 329.824 263.462 328.016 261.366 328.016C260.102 328.016 259.142 328.592 258.582 329.584V324.8H256.806V336ZM260.982 334.464C259.622 334.464 258.598 333.44 258.598 332.08C258.598 330.736 259.622 329.712 260.982 329.712C262.31 329.712 263.35 330.768 263.35 332.08C263.35 333.408 262.31 334.464 260.982 334.464ZM270.111 336.16C272.015 336.16 273.519 335.088 273.791 333.424H272.031C271.871 334.16 271.103 334.64 270.095 334.64C268.799 334.64 267.887 333.792 267.727 332.512H273.855C273.871 332.336 273.887 332 273.887 331.84C273.887 329.664 272.191 328.016 270.079 328.016C267.823 328.016 266.047 329.776 266.047 332.064C266.047 334.384 267.823 336.16 270.111 336.16ZM267.823 331.216C268.111 330.128 268.927 329.52 269.999 329.52C271.071 329.52 271.903 330.24 271.999 331.216H267.823ZM277.066 324.8H275.29V336H277.066V324.8Z" fill="#2F78C4"/>
<path d="M334.655 307C334.655 305.895 335.55 305 336.655 305H467.63C468.735 305 469.63 305.895 469.63 307V351C469.63 352.105 468.735 353 467.63 353H336.655C335.55 353 334.655 352.105 334.655 351V307Z" fill="#E0EBF6"/>
<path opacity="0.15" d="M369.571 322.929C365.682 326.818 365.682 333.182 369.571 337.071C373.46 340.96 379.824 340.96 383.713 337.071C387.603 333.182 387.603 326.818 383.713 322.929C379.824 319.04 373.46 319.04 369.571 322.929ZM381.592 328.763V331.237H377.88V334.95H375.405V331.237H371.693V328.763H375.405V325.05H377.88V328.763H381.592Z" fill="#2F78C4"/>
<path d="M397.998 324.8V336H405.23V334.208H399.87V324.8H397.998ZM414.213 328.176H412.421V329.584C411.861 328.592 410.901 328.016 409.637 328.016C407.541 328.016 405.893 329.824 405.893 332.08C405.893 334.336 407.541 336.16 409.637 336.16C410.901 336.16 411.861 335.584 412.421 334.592V336H414.213V328.176ZM407.653 332.08C407.653 330.768 408.693 329.712 410.021 329.712C411.381 329.712 412.405 330.736 412.405 332.08C412.405 333.44 411.381 334.464 410.021 334.464C408.693 334.464 407.653 333.408 407.653 332.08ZM416.09 336H417.866V334.592C418.426 335.584 419.386 336.16 420.65 336.16C422.746 336.16 424.394 334.336 424.394 332.08C424.394 329.824 422.746 328.016 420.65 328.016C419.386 328.016 418.426 328.592 417.866 329.584V324.8H416.09V336ZM420.266 334.464C418.906 334.464 417.882 333.44 417.882 332.08C417.882 330.736 418.906 329.712 420.266 329.712C421.594 329.712 422.634 330.768 422.634 332.08C422.634 333.408 421.594 334.464 420.266 334.464ZM429.395 336.16C431.299 336.16 432.803 335.088 433.075 333.424H431.315C431.155 334.16 430.387 334.64 429.379 334.64C428.083 334.64 427.171 333.792 427.011 332.512H433.139C433.155 332.336 433.171 332 433.171 331.84C433.171 329.664 431.475 328.016 429.363 328.016C427.107 328.016 425.331 329.776 425.331 332.064C425.331 334.384 427.107 336.16 429.395 336.16ZM427.107 331.216C427.395 330.128 428.211 329.52 429.283 329.52C430.355 329.52 431.187 330.24 431.283 331.216H427.107ZM436.35 324.8H434.574V336H436.35V324.8Z" fill="#222222"/>
<rect x="0.5" y="0.5" width="656" height="497" rx="4.5" stroke="#7B61FF" stroke-dasharray="10 5"/>
</svg>
