<svg width="296" height="76" viewBox="0 0 296 76" fill="none" xmlns="http://www.w3.org/2000/svg">
<path d="M296 6.32966C296 6.89318 295.83 7.44405 295.512 7.91261C295.193 8.38116 294.741 8.74634 294.212 8.96199C293.682 9.17764 293.1 9.23408 292.538 9.12414C291.976 9.01421 291.459 8.74282 291.054 8.34435C290.649 7.94588 290.373 7.43821 290.261 6.88551C290.149 6.33281 290.207 5.75992 290.426 5.23929C290.645 4.71866 291.017 4.27368 291.493 3.9606C291.97 3.64752 292.53 3.48041 293.103 3.48041C293.871 3.48041 294.608 3.7806 295.151 4.31494C295.695 4.84927 296 5.574 296 6.32966ZM295.61 6.32966C295.607 5.84254 295.458 5.36701 295.182 4.9631C294.905 4.55919 294.512 4.24501 294.054 4.06019C293.596 3.87536 293.092 3.82817 292.606 3.92461C292.121 4.02105 291.675 4.2568 291.326 4.60206C290.976 4.94731 290.739 5.38663 290.643 5.86456C290.547 6.34249 290.598 6.83762 290.788 7.28744C290.978 7.73727 291.299 8.12161 291.711 8.39201C292.123 8.66241 292.608 8.80671 293.103 8.80672C293.769 8.80364 294.406 8.54131 294.876 8.0771C295.346 7.61289 295.61 6.98461 295.61 6.32966ZM293.635 6.57387L294.51 7.89962H293.836L293.044 6.64364H292.594V7.89962H292.039V4.74803H293.221C293.349 4.74494 293.477 4.76695 293.597 4.81276C293.716 4.85857 293.825 4.92729 293.918 5.01492C294.01 5.10254 294.084 5.20733 294.135 5.32322C294.186 5.43911 294.213 5.56378 294.214 5.69002C294.225 5.87861 294.175 6.06565 294.071 6.2244C293.966 6.38314 293.814 6.50547 293.635 6.57387ZM292.594 6.16683H293.186C293.248 6.16838 293.31 6.15788 293.368 6.13592C293.426 6.11396 293.479 6.08097 293.524 6.03885C293.569 5.99673 293.605 5.94629 293.63 5.89043C293.655 5.83457 293.669 5.77439 293.67 5.7133C293.669 5.65271 293.655 5.59304 293.63 5.5378C293.604 5.48256 293.568 5.43284 293.523 5.39165C293.478 5.35045 293.425 5.31858 293.367 5.29792C293.309 5.27725 293.247 5.26824 293.186 5.27137H292.594V6.16683ZM187.348 12.7375H191.664V38.4387H187.301L187.348 12.7375ZM171.396 12.1677C168.613 12.1667 165.917 13.1163 163.768 14.8541V12.7375H159.416V38.4387H163.768V23.9484C163.768 21.959 164.572 20.051 166.002 18.6443C167.433 17.2376 169.373 16.4473 171.396 16.4473C173.418 16.4473 175.359 17.2376 176.789 18.6443C178.219 20.051 179.023 21.959 179.023 23.9484V38.4387H183.387V23.9484C183.387 22.4003 183.076 20.8674 182.474 19.4374C181.871 18.0073 180.987 16.7081 179.874 15.614C178.76 14.5199 177.438 13.6524 175.983 13.0611C174.529 12.4697 172.97 12.1661 171.396 12.1677ZM150.701 12.7259H155.065V37.4619C154.986 40.9959 153.523 44.3636 150.98 46.862C148.437 49.3604 145.012 50.7966 141.418 50.8707C138.511 50.9445 135.66 50.0726 133.308 48.3905C130.956 46.7083 129.234 44.3098 128.41 41.5671H133.14C133.864 43.1119 135.036 44.4118 136.509 45.3036C137.982 46.1954 139.69 46.6392 141.418 46.5794C143.854 46.4982 146.167 45.5103 147.891 43.8156C149.614 42.1208 150.618 39.8456 150.701 37.4502V35.3802C148.755 37.1597 146.324 38.3421 143.705 38.7821C141.086 39.2221 138.393 38.9006 135.957 37.8572C133.521 36.8137 131.448 35.0936 129.992 32.9079C128.536 30.7223 127.76 28.1662 127.76 25.5532C127.76 22.9403 128.536 20.3842 129.992 18.1985C131.448 16.0129 133.521 14.2928 135.957 13.2493C138.393 12.2059 141.086 11.8844 143.705 12.3244C146.324 12.7644 148.755 13.9467 150.701 15.7263V12.7259ZM150.701 25.5184C150.701 23.7128 150.157 21.9477 149.137 20.4465C148.117 18.9452 146.667 17.7751 144.971 17.0841C143.274 16.3931 141.408 16.2123 139.607 16.5646C137.806 16.9168 136.152 17.7863 134.854 19.063C133.556 20.3398 132.672 21.9665 132.313 23.7373C131.955 25.5082 132.139 27.3438 132.842 29.0119C133.544 30.6801 134.734 32.1059 136.261 33.109C137.787 34.1121 139.582 34.6475 141.418 34.6475C143.87 34.6475 146.222 33.6937 147.961 31.9942C149.701 30.2947 150.685 27.9876 150.701 25.5765V25.5184ZM83.2961 16.3892C85.0639 16.3877 86.7955 16.8827 88.287 17.816C89.7786 18.7492 90.9682 20.0819 91.7158 21.6574H96.3632C95.4209 18.5723 93.3816 15.9235 90.6178 14.1946C87.8541 12.4658 84.5502 11.7721 81.3095 12.2405C78.0688 12.7088 75.1075 14.3078 72.9664 16.7456C70.8252 19.1833 69.6471 22.2971 69.6471 25.5184C69.6471 28.7396 70.8252 31.8534 72.9664 34.2911C75.1075 36.7288 78.0688 38.3278 81.3095 38.7962C84.5502 39.2645 87.8541 38.571 90.6178 36.8421C93.3816 35.1132 95.4209 32.4644 96.3632 29.3793H91.7158C91.0123 30.8617 89.9167 32.1309 88.5437 33.0542C87.1706 33.9775 85.5705 34.5211 83.9106 34.628C82.2508 34.7349 80.5923 34.4012 79.1085 33.6619C77.6247 32.9226 76.3701 31.8048 75.476 30.4254C74.582 29.046 74.0812 27.4556 74.0261 25.8207C73.971 24.1857 74.3636 22.5663 75.1629 21.1317C75.9622 19.6971 77.1387 18.5 78.5695 17.6657C80.0003 16.8314 81.6327 16.3906 83.2961 16.3892ZM125.702 25.5184C125.704 28.1737 124.906 30.77 123.407 32.9787C121.909 35.1875 119.777 36.9094 117.283 37.9266C114.789 38.9438 112.044 39.2106 109.396 38.6931C106.748 38.1757 104.315 36.8972 102.406 35.0197C100.497 33.1421 99.1968 30.7497 98.6707 28.1453C98.1445 25.5409 98.4157 22.8416 99.4501 20.3888C100.484 17.9361 102.235 15.8402 104.481 14.3664C106.727 12.8927 109.367 12.1072 112.067 12.1095C113.86 12.1141 115.635 12.4661 117.29 13.1455C118.944 13.8249 120.447 14.8184 121.711 16.0691C122.975 17.3197 123.976 18.8031 124.657 20.4345C125.337 22.0658 125.685 23.8131 125.678 25.5765L125.702 25.5184ZM121.35 25.5184C121.35 23.7128 120.806 21.9477 119.786 20.4465C118.766 18.9452 117.316 17.7751 115.62 17.0841C113.924 16.3931 112.057 16.2123 110.256 16.5646C108.456 16.9168 106.802 17.7863 105.503 19.063C104.205 20.3398 103.321 21.9665 102.963 23.7373C102.605 25.5082 102.788 27.3438 103.491 29.0119C104.194 30.6801 105.383 32.1059 106.91 33.109C108.437 34.1121 110.231 34.6475 112.067 34.6475C114.514 34.6384 116.858 33.6809 118.592 31.9827C120.325 30.2845 121.308 27.9826 121.327 25.5765L121.35 25.5184ZM263.799 12.1677C261.017 12.1667 258.321 13.1163 256.172 14.8541V12.7375H251.82V38.4387H256.172V23.9484C256.172 21.959 256.976 20.051 258.406 18.6443C259.836 17.2376 261.776 16.4473 263.799 16.4473C265.822 16.4473 267.762 17.2376 269.193 18.6443C270.623 20.051 271.427 21.959 271.427 23.9484V38.4387H275.79V23.9484C275.79 22.4003 275.48 20.8674 274.877 19.4374C274.275 18.0073 273.391 16.7081 272.278 15.614C271.164 14.5199 269.842 13.6524 268.387 13.0611C266.933 12.4697 265.374 12.1661 263.799 12.1677ZM243.105 12.7375H247.469V38.4387H243.105V35.4034C241.476 36.8834 239.504 37.9501 237.36 38.5111C235.217 39.072 232.967 39.1103 230.805 38.6225C228.643 38.1347 226.635 37.1356 224.954 35.7119C223.274 34.2881 221.972 32.4828 221.162 30.4523C220.351 28.4219 220.057 26.2276 220.304 24.0599C220.551 21.8923 221.332 19.8165 222.579 18.0128C223.827 16.2091 225.502 14.7319 227.462 13.7093C229.421 12.6867 231.604 12.1495 233.822 12.1444C237.266 12.1405 240.583 13.4205 243.105 15.7263V12.7375ZM243.105 25.53C243.105 23.7244 242.56 21.9594 241.54 20.4581C240.52 18.9568 239.071 17.7867 237.374 17.0957C235.678 16.4048 233.812 16.224 232.011 16.5762C230.21 16.9285 228.556 17.7979 227.258 19.0747C225.96 20.3514 225.076 21.9781 224.717 23.7489C224.359 25.5198 224.543 27.3554 225.246 29.0236C225.948 30.6917 227.138 32.1175 228.665 33.1206C230.191 34.1237 231.986 34.6591 233.822 34.6591C235.041 34.6653 236.249 34.4352 237.378 33.9821C238.507 33.5289 239.533 32.8616 240.4 32.0182C241.266 31.1748 241.955 30.1718 242.428 29.0666C242.9 27.9613 243.146 26.7754 243.152 25.5765L243.105 25.53ZM290.348 16.9707V12.691H283.903V5.7133H279.539V29.8561C279.539 32.1293 280.457 34.3094 282.092 35.9167C283.726 37.5241 285.943 38.4271 288.254 38.4271H290.43V34.1474H288.254C287.099 34.1444 285.992 33.6909 285.176 32.8865C284.361 32.082 283.903 30.9923 283.903 29.8561V17.0172L290.348 16.9707ZM189.536 3.46877C188.962 3.46878 188.402 3.63618 187.925 3.94978C187.448 4.26337 187.077 4.70907 186.858 5.23038C186.639 5.75169 186.582 6.32515 186.695 6.87817C186.808 7.43118 187.085 7.93885 187.491 8.33686C187.898 8.73486 188.415 9.0053 188.978 9.11392C189.541 9.22254 190.123 9.16445 190.653 8.94701C191.182 8.72957 191.634 8.36256 191.95 7.89248C192.267 7.4224 192.435 6.87039 192.433 6.30638C192.433 5.93276 192.358 5.56281 192.212 5.21778C192.066 4.87275 191.853 4.55942 191.584 4.29577C191.314 4.03212 190.995 3.82335 190.644 3.68143C190.292 3.53952 189.916 3.46724 189.536 3.46877ZM217.917 12.7724H196.111V17.0637H212.241L196.111 34.194V38.4736H217.893V34.194H201.751L217.881 17.0637L217.917 12.7724Z" fill="white"/>
<path d="M282.69 58.1329C280.948 58.1313 279.259 58.7337 277.914 59.8366V58.4954H275.185V74.7892H277.914V65.6001C277.914 64.3383 278.417 63.1282 279.313 62.236C280.209 61.3437 281.424 60.8425 282.69 60.8425C283.957 60.8425 285.172 61.3437 286.068 62.236C286.964 63.1282 287.467 64.3383 287.467 65.6001V74.7892H290.196V65.6001C290.194 63.6189 289.402 61.7196 287.994 60.3194C286.587 58.9193 284.679 58.1329 282.69 58.1329Z" fill="white"/>
<path d="M169.965 66.3267C169.342 66.0047 168.684 65.7539 168.005 65.579C167.295 65.3932 166.579 65.2347 165.869 65.1078C165.219 64.9955 164.576 64.8442 163.945 64.6547C163.426 64.5115 162.951 64.2395 162.566 63.864C162.374 63.6542 162.229 63.4052 162.141 63.1343C162.054 62.8633 162.027 62.5768 162.062 62.2944C162.096 62.012 162.192 61.7404 162.342 61.4982C162.492 61.2561 162.693 61.0491 162.93 60.8916C163.529 60.4747 164.325 60.2641 165.296 60.2641C166.185 60.2355 167.06 60.4868 167.798 60.9822C168.111 61.1856 168.379 61.4518 168.584 61.7638C168.789 62.0758 168.926 62.4269 168.987 62.7947L169.001 62.8898H171.717L171.701 62.7629C171.619 62.069 171.392 61.4 171.033 60.7996C170.675 60.1991 170.193 59.6808 169.619 59.2785C168.381 58.403 166.892 57.9493 165.373 57.9849C163.597 57.9849 162.148 58.4244 161.065 59.2899C160.543 59.688 160.122 60.2032 159.837 60.7937C159.552 61.3841 159.411 62.0332 159.425 62.6882C159.407 63.3801 159.559 64.066 159.867 64.6864C160.133 65.2138 160.537 65.6599 161.036 65.9778C161.544 66.288 162.085 66.5418 162.648 66.7345C163.249 66.9456 163.868 67.1018 164.497 67.2012C165.118 67.2986 165.73 67.4277 166.317 67.575C166.853 67.7106 167.38 67.8793 167.895 68.0802C168.323 68.246 168.697 68.5258 168.976 68.889C169.253 69.2721 169.395 69.7356 169.381 70.2075C169.387 70.5853 169.298 70.9585 169.124 71.2939C168.949 71.6292 168.693 71.9161 168.38 72.1287C167.698 72.6317 166.788 72.8854 165.687 72.8854C164.691 72.9199 163.709 72.6374 162.885 72.0789C162.53 71.8335 162.232 71.5145 162.013 71.1438C161.794 70.773 161.657 70.3593 161.613 69.9311V69.8315H159.027L159.041 69.9561C159.101 70.7091 159.319 71.4411 159.682 72.1046C160.044 72.7681 160.543 73.3483 161.145 73.8075C162.369 74.7477 163.933 75.2257 165.796 75.2257C167.575 75.2257 169.071 74.7454 170.245 73.7962C170.807 73.3666 171.261 72.8121 171.571 72.1769C171.88 71.5416 172.036 70.8432 172.026 70.1373C172.047 69.3083 171.843 68.489 171.437 67.7653C171.092 67.1575 170.582 66.6589 169.965 66.3267Z" fill="white"/>
<path d="M181.579 58.1036C180.459 58.0788 179.346 58.2839 178.31 58.706C177.273 59.1281 176.335 59.7583 175.554 60.5572C173.921 62.196 173.104 64.2131 173.104 66.6085C173.104 69.0039 173.921 71.021 175.554 72.6598C177.165 74.2324 179.331 75.1132 181.587 75.1132C183.842 75.1132 186.008 74.2324 187.619 72.6598C189.265 71.0225 190.087 69.0055 190.087 66.6085C190.087 64.2116 189.266 62.1945 187.624 60.5572C186.838 59.7587 185.896 59.129 184.856 58.707C183.817 58.285 182.701 58.0797 181.579 58.1036ZM185.9 71.0014C185.336 71.5695 184.665 72.0206 183.925 72.3284C183.186 72.6363 182.392 72.7948 181.59 72.7948C180.788 72.7948 179.994 72.6363 179.254 72.3284C178.515 72.0206 177.843 71.5695 177.28 71.0014C176.157 69.8092 175.533 68.2361 175.533 66.6017C175.533 64.9673 176.157 63.3942 177.28 62.202C178.425 61.064 179.977 60.4249 181.594 60.4249C183.212 60.4249 184.764 61.064 185.909 62.202C187.039 63.3876 187.669 64.96 187.669 66.5949C187.669 68.2298 187.039 69.8022 185.909 70.9878L185.9 71.0014Z" fill="white"/>
<path d="M198.987 50.7331C197.261 50.7331 195.885 51.2202 194.893 52.1853C193.901 53.1505 193.41 54.5891 193.41 56.4604V58.334H190.162V60.842H193.41V74.8884H196.094V60.842H200.725V58.334H196.094V56.4944C196.094 54.3059 197.183 53.2411 199.424 53.2411C199.814 53.2357 200.204 53.2783 200.584 53.368L200.725 53.4042V50.9121L200.634 50.894C200.092 50.7844 199.54 50.7305 198.987 50.7331Z" fill="white"/>
<path d="M205.098 53.9323H202.626V69.3017C202.626 71.1731 203.109 72.5822 204.075 73.5292C205.041 74.4762 206.382 74.9497 208.098 74.9497C208.633 74.9528 209.167 74.8973 209.69 74.7843V72.5346C209.319 72.6318 208.937 72.6761 208.553 72.6661C206.256 72.6661 205.108 71.5333 205.11 69.2677V60.7289H209.69V58.4475H205.098V53.9323Z" fill="white"/>
<path d="M219.309 71.3337L214.025 58.4224H211.141L218.178 74.7932H220.46L227.463 58.4224H224.547L219.309 71.3337Z" fill="white"/>
<path d="M246.111 66.3266C245.488 66.0047 244.83 65.7539 244.15 65.579C243.443 65.3932 242.724 65.2346 242.015 65.1077C241.365 64.9952 240.724 64.8439 240.093 64.6546C239.574 64.5115 239.099 64.2394 238.714 63.864C238.521 63.6545 238.375 63.4056 238.288 63.1345C238.2 62.8635 238.173 62.5767 238.207 62.294C238.242 62.0114 238.338 61.7396 238.488 61.4974C238.638 61.2553 238.84 61.0486 239.078 60.8916C239.677 60.4747 240.473 60.264 241.444 60.264C242.328 60.2377 243.199 60.4889 243.932 60.9822C244.246 61.1848 244.515 61.4508 244.719 61.7629C244.924 62.0751 245.061 62.4265 245.121 62.7946L245.137 62.8898H247.858L247.842 62.7629C247.76 62.0687 247.533 61.3994 247.174 60.799C246.815 60.1985 246.332 59.6804 245.758 59.2785C244.52 58.4034 243.032 57.9497 241.514 57.9849C239.738 57.9849 238.287 58.4244 237.206 59.2898C236.684 59.6878 236.263 60.203 235.978 60.7934C235.692 61.3839 235.551 62.033 235.564 62.6881C235.547 63.3799 235.699 64.0655 236.006 64.6863C236.273 65.2134 236.678 65.6593 237.177 65.9777C237.685 66.288 238.226 66.5418 238.789 66.7344C239.39 66.9458 240.009 67.1021 240.639 67.2011C241.257 67.2985 241.869 67.4277 242.458 67.5749C242.994 67.7102 243.52 67.879 244.034 68.0801C244.463 68.2447 244.837 68.5247 245.115 68.8889C245.393 69.2713 245.537 69.7352 245.522 70.2075C245.528 70.5852 245.439 70.9585 245.265 71.2938C245.09 71.6291 244.834 71.916 244.521 72.1287C243.839 72.6316 242.929 72.8854 241.828 72.8854C240.832 72.9199 239.85 72.6374 239.026 72.0788C238.671 71.8332 238.373 71.5142 238.154 71.1436C237.934 70.7729 237.797 70.3593 237.752 69.9311V69.8314H235.169L235.182 69.956C235.241 70.7093 235.459 71.4416 235.822 72.1053C236.184 72.7689 236.683 73.3489 237.286 73.8074C238.507 74.7476 240.075 75.2257 241.937 75.2257C243.714 75.2257 245.21 74.7454 246.386 73.7961C246.949 73.3666 247.403 72.8121 247.712 72.1768C248.021 71.5416 248.177 70.8432 248.167 70.1372C248.194 69.3101 247.998 68.491 247.598 67.7652C247.249 67.155 246.734 66.6561 246.111 66.3266Z" fill="white"/>
<path d="M264.738 58.1036C263.619 58.0792 262.506 58.2844 261.47 58.7065C260.433 59.1286 259.495 59.7585 258.713 60.5572C257.086 62.1914 256.273 64.2085 256.273 66.6084C256.273 69.0084 257.089 71.0255 258.72 72.6597C260.331 74.2289 262.494 75.1075 264.747 75.1075C267 75.1075 269.164 74.2289 270.775 72.6597C271.982 71.4721 272.807 69.9531 273.143 68.2966C273.48 66.6401 273.314 64.9212 272.666 63.3592C272.017 61.7973 270.917 60.4631 269.504 59.527C268.091 58.591 266.43 58.0954 264.734 58.1036H264.738ZM269.06 71.0013C268.496 71.5695 267.825 72.0206 267.085 72.3285C266.344 72.6364 265.55 72.7949 264.748 72.7949C263.947 72.7949 263.152 72.6364 262.412 72.3285C261.672 72.0206 261.001 71.5695 260.437 71.0013C259.315 69.8091 258.69 68.236 258.69 66.6016C258.69 64.9672 259.315 63.3941 260.437 62.2019C261.583 61.0639 263.134 60.4248 264.752 60.4248C266.37 60.4248 267.921 61.0639 269.067 62.2019C270.196 63.3878 270.826 64.9601 270.826 66.5948C270.826 68.2295 270.196 69.8019 269.067 70.9877L269.06 71.0013Z" fill="white"/>
<path d="M229.858 74.7819H232.592V58.4722H229.887L229.858 74.7819Z" fill="white"/>
<path d="M231.266 52.5864C230.906 52.5864 230.554 52.6927 230.255 52.8918C229.955 53.091 229.722 53.374 229.585 53.7052C229.447 54.0364 229.411 54.4008 229.481 54.7524C229.551 55.104 229.725 55.4269 229.979 55.6804C230.233 55.9339 230.558 56.1065 230.911 56.1764C231.264 56.2463 231.629 56.2105 231.962 56.0733C232.294 55.9361 232.579 55.7038 232.778 55.4057C232.978 55.1077 233.085 54.7573 233.085 54.3988C233.085 53.9181 232.893 53.4571 232.552 53.1172C232.211 52.7773 231.748 52.5864 231.266 52.5864Z" fill="white"/>
<path d="M251.001 74.7819H253.735V58.4722H251.03L251.001 74.7819Z" fill="white"/>
<path d="M252.406 52.5864C252.047 52.5864 251.695 52.6927 251.396 52.8919C251.096 53.091 250.863 53.3741 250.725 53.7053C250.588 54.0364 250.552 54.4009 250.622 54.7524C250.692 55.104 250.865 55.427 251.12 55.6804C251.374 55.9339 251.699 56.1065 252.052 56.1765C252.404 56.2464 252.77 56.2105 253.103 56.0733C253.435 55.9361 253.719 55.7038 253.919 55.4058C254.119 55.1077 254.226 54.7573 254.226 54.3989C254.228 54.1603 254.182 53.9238 254.091 53.7031C254 53.4824 253.866 53.2819 253.697 53.1132C253.528 52.9446 253.327 52.8111 253.105 52.7207C252.883 52.6303 252.646 52.5846 252.406 52.5864Z" fill="white"/>
<path d="M36.4795 39.5702L17.6766 50.7253L0.854171 26.6726H27.2808L36.4795 39.5702ZM27.257 25.2619H0.830322L17.6766 1.17358L36.5034 12.3405L27.257 25.2619ZM44.4731 51.8989H18.4879L62.2739 25.9494L44.4731 51.8989ZM62.2739 25.9494L18.4879 0H44.4731L62.2739 25.9494Z" fill="white"/>
</svg>
