<svg width="431" height="132" viewBox="0 0 431 132" fill="none" xmlns="http://www.w3.org/2000/svg">
    <path d="M344.012 98.7588H341.761V104.95H339.555V107.189H341.761V117.069C341.761 120.143 343.791 122.382 346.615 122.382H347.365V120.143H346.615C344.85 120.143 344.012 118.562 344.012 117.069V107.189H347.365V104.95H344.012V98.7588Z" fill="#222222" />
    <path d="M332.097 101.789V104.906H329.891V107.146H332.097V122.382H334.348V107.189H337.701V104.95H334.348V101.789C334.348 100.296 335.142 98.715 336.951 98.715H337.701V96.4756H336.951C334.127 96.5195 332.097 98.7589 332.097 101.789Z" fill="#222222" />
    <path d="M371.679 98.7588H367.973V102.447H371.679V98.7588Z" fill="#222222" />
    <path d="M384.309 113.293C383.603 112.942 382.853 112.634 382.146 112.371C381.352 112.107 380.646 111.888 379.984 111.712C379.366 111.581 378.793 111.317 378.307 110.922C377.866 110.615 377.645 110.132 377.645 109.605C377.645 109.078 377.91 108.595 378.351 108.331C378.881 107.936 379.543 107.76 380.249 107.804C380.867 107.804 381.485 107.936 382.014 108.2C382.411 108.375 382.808 108.595 383.161 108.858C383.338 109.034 383.514 109.166 383.603 109.253L385.986 106.882L385.765 106.619C385.235 106.092 384.618 105.653 383.956 105.302C383.426 105.038 382.897 104.819 382.323 104.731C381.661 104.555 380.955 104.467 380.249 104.511C378.616 104.467 377.028 104.994 375.748 106.092C373.895 107.541 373.409 110.175 374.601 112.195C374.998 112.854 375.571 113.381 376.277 113.732C376.983 114.083 377.734 114.347 378.44 114.61C379.234 114.874 379.94 115.093 380.602 115.313C381.22 115.488 381.793 115.752 382.279 116.103C382.72 116.411 382.941 116.894 382.941 117.377C382.941 117.991 382.676 118.606 382.191 119.001C381.529 119.44 380.778 119.66 379.984 119.616C379.146 119.616 378.307 119.396 377.601 119.001C377.072 118.738 376.542 118.43 376.101 118.035C375.924 117.816 375.748 117.64 375.571 117.42L373.188 119.792L373.453 120.143C373.718 120.45 373.983 120.714 374.292 120.933C374.733 121.284 375.174 121.548 375.616 121.855C376.233 122.207 376.895 122.47 377.557 122.646C378.351 122.865 379.19 122.953 380.028 122.953C381.793 123.041 383.47 122.47 384.838 121.328C386.03 120.362 386.692 118.957 386.692 117.42C386.736 116.542 386.471 115.664 386.03 114.918C385.633 114.127 385.015 113.644 384.309 113.293Z" fill="#222222" />
    <path d="M392.053 98.7588H388.347V102.447H392.053V98.7588Z" fill="#222222" />
    <path d="M392.053 104.95H388.347V122.382H392.053V104.95Z" fill="#222222" />
    <path d="M428.415 106.575C427.047 105.17 425.15 104.38 423.208 104.468C422.59 104.468 421.973 104.555 421.399 104.687C420.869 104.819 420.384 104.994 419.899 105.214C419.501 105.39 419.148 105.609 418.795 105.873C418.575 106.048 418.31 106.224 418.133 106.4L417.913 106.619V104.907H414.206V122.383H417.913V112.239C417.957 111.098 418.398 110.044 419.148 109.166C420.031 108.244 421.267 107.761 422.502 107.805C423.649 107.761 424.708 108.244 425.503 109.034C426.297 109.868 426.738 111.01 426.738 112.196V122.383H430.445V112.239C430.401 109.868 429.739 107.98 428.415 106.575Z" fill="#222222" />
    <path d="M357.691 117.596L352.572 104.95H348.688L355.837 122.338H359.456L366.605 104.95H362.721L357.691 117.596Z" fill="#222222" />
    <path d="M403.183 104.467C398.108 104.555 394.093 108.638 394.004 113.644C393.96 118.737 398.02 122.865 403.095 122.909C408.214 122.953 412.362 118.913 412.406 113.863C412.45 111.361 411.435 108.946 409.626 107.189C407.949 105.477 405.61 104.467 403.183 104.467ZM403.183 119.132C400.138 119.132 397.623 116.674 397.623 113.6C397.623 110.57 400.094 108.067 403.183 108.067C406.272 108.067 408.743 110.526 408.743 113.6C408.743 116.674 406.228 119.132 403.183 119.132Z" fill="#222222" />
    <path d="M371.679 104.95H367.973V122.382H371.679V104.95Z" fill="#222222" />
    <path d="M326.824 107.233C325.147 105.477 322.808 104.467 320.337 104.467C317.866 104.467 315.527 105.433 313.85 107.233C310.32 110.658 310.232 116.278 313.674 119.879C313.762 119.967 313.806 120.055 313.894 120.098C317.336 123.655 323.029 123.743 326.603 120.318C326.692 120.23 326.736 120.186 326.824 120.098C330.398 116.674 330.487 111.009 327.045 107.453C326.956 107.365 326.912 107.321 326.824 107.233ZM320.337 120.581C316.498 120.581 313.365 117.464 313.365 113.644C313.365 109.824 316.498 106.75 320.337 106.75C324.176 106.75 327.309 109.868 327.309 113.688C327.353 117.464 324.22 120.581 320.337 120.581Z" fill="#222222" />
    <path d="M304.627 109.297C303.259 108.814 301.847 108.375 300.479 107.936C299.244 107.585 298.096 107.014 297.081 106.223C296.199 105.609 295.713 104.599 295.757 103.545C295.713 102.272 296.287 100.998 297.258 100.164C298.273 99.2858 299.729 98.8028 301.582 98.8028C302.288 98.8028 302.95 98.8906 303.656 99.0663C304.23 99.198 304.76 99.4176 305.245 99.6371C305.642 99.8566 306.039 100.12 306.392 100.384C306.745 100.647 307.451 101.306 307.54 101.393L309.172 99.7249C308.731 99.2419 308.246 98.8028 307.716 98.4076C307.231 98.1003 306.745 97.7929 306.26 97.5295C305.598 97.1782 304.892 96.9147 304.186 96.7391C303.348 96.5195 302.465 96.3878 301.582 96.3878C299.42 96.3 297.302 97.0465 295.669 98.4516C294.257 99.8566 293.419 101.613 293.419 103.545C293.375 104.994 293.904 106.443 294.919 107.497C295.934 108.551 297.17 109.297 298.538 109.78C299.906 110.263 301.318 110.702 302.686 111.097C303.921 111.449 305.069 112.019 306.128 112.81C307.01 113.468 307.496 114.522 307.451 115.576C307.496 116.937 306.922 118.255 305.863 119.133C304.804 120.011 303.259 120.494 301.229 120.494C300.391 120.494 299.553 120.406 298.714 120.143C298.052 119.967 297.39 119.748 296.817 119.44C296.331 119.177 295.89 118.869 295.493 118.474C294.963 118.035 294.257 117.332 294.213 117.245L292.536 118.825C293.022 119.396 293.551 119.879 294.125 120.362C294.654 120.757 295.184 121.153 295.757 121.46C296.508 121.899 297.346 122.206 298.185 122.426C299.199 122.689 300.214 122.821 301.229 122.821C303.833 122.821 305.907 122.119 307.451 120.801C308.952 119.484 309.834 117.596 309.79 115.576C309.834 114.083 309.305 112.634 308.29 111.536C307.231 110.527 305.995 109.736 304.627 109.297Z" fill="#222222" />
    <path d="M234.689 118.343H225.003L234.689 109.39V105.346H218.6V109.39H228.29L218.6 118.343V122.387H234.689V118.343Z" fill="#222222" />
    <path d="M260.381 112.921C260.381 109.997 261.85 108.789 263.668 108.789C265.831 108.789 266.868 110.168 266.868 112.491V122.388H271.713V111.889C271.713 107.498 269.207 104.833 265.054 104.833C263.152 104.833 261.422 105.694 260.297 107.156V105.347H255.54V122.388H260.385L260.381 112.921Z" fill="#222222" />
    <path d="M198.79 112.899C198.79 109.974 200.26 108.767 202.078 108.767C204.24 108.767 205.277 110.146 205.277 112.468V122.365H210.034V111.867C210.034 107.476 207.528 104.811 203.375 104.811C201.473 104.811 199.744 105.671 198.618 107.133V105.324H193.861V122.365H198.79V112.899Z" fill="#222222" />
    <path d="M243.598 122.817C245.589 122.905 247.579 122.044 248.876 120.494V122.387H253.633V105.346H248.876V106.896C247.491 105.605 245.677 104.832 243.771 104.915C239.878 104.915 235.382 107.668 235.382 113.781C235.382 119.805 239.967 122.734 243.598 122.817ZM244.38 109.561C244.468 109.561 244.468 109.561 244.552 109.561C246.974 109.561 248.964 111.541 248.964 113.952C248.876 116.362 246.974 118.255 244.552 118.343C242.129 118.343 240.139 116.362 240.139 113.952C240.055 111.458 241.957 109.649 244.38 109.561Z" fill="#222222" />
    <path d="M172.495 113.847C172.495 108.942 168.515 104.894 163.498 104.894C158.48 104.894 154.416 108.938 154.416 113.847C154.416 118.839 158.48 122.883 163.414 122.883C168.519 122.8 172.495 118.751 172.495 113.847ZM163.502 118.15C161.079 118.15 159.089 116.169 159.089 113.759C159.089 111.348 161.079 109.368 163.502 109.368C165.925 109.368 167.915 111.348 167.915 113.759C167.91 116.257 165.92 118.15 163.502 118.15Z" fill="#222222" />
    <path d="M216.697 105.411H211.94V122.369H216.697V105.411Z" fill="#222222" />
    <path d="M182.098 122.8C184.088 122.8 185.99 121.939 187.287 120.477V122.369C187.287 124.78 185.385 126.76 182.874 126.76C181.577 126.76 180.279 126.159 179.503 125.21L175.35 127.621C178.205 131.753 183.916 132.785 188.068 129.86C190.491 128.139 191.96 125.386 191.96 122.374V105.324H187.375V106.874C185.99 105.583 184.176 104.894 182.27 104.894C178.378 104.894 173.881 107.647 173.881 113.759C173.881 119.788 178.466 122.712 182.098 122.8ZM182.879 109.544C182.967 109.544 182.967 109.544 183.051 109.544C185.473 109.544 187.463 111.524 187.463 113.934C187.375 116.345 185.473 118.238 183.051 118.325C180.628 118.325 178.638 116.345 178.638 113.934C178.55 111.436 180.456 109.627 182.879 109.544Z" fill="#222222" />
    <path d="M216.803 99.2998H212.046V104.033H216.803V99.2998Z" fill="#222222" />
    <path d="M279.681 99.3223H274.92V105.347H272.758V109.391H274.92V114.383C275.008 121.009 278.9 122.388 282.188 122.388H282.965V117.654H282.188C280.37 117.654 279.681 117.136 279.681 114.383V109.307H282.969V105.347H279.681V99.3223Z" fill="#222222" />
    <path d="M142.395 122.822C146.98 122.822 151.304 120.411 153.555 116.367L149.575 114.044C147.24 118.005 142.223 119.296 138.242 117.057C134.35 114.817 133.053 109.825 135.304 105.868C137.554 101.912 142.571 100.617 146.547 102.856C147.756 103.546 148.882 104.578 149.575 105.868L153.555 103.546C150.007 97.4335 142.223 95.3698 135.996 98.8957C129.77 102.422 127.775 110.343 131.323 116.451C133.658 120.411 137.894 122.822 142.395 122.822Z" fill="#222222" />
    <path d="M154.793 66.2399C164.873 66.2399 171.017 61.7279 173.801 57.6959L164.201 48.6719C162.377 51.2639 159.401 53.1839 155.465 53.1839C149.321 53.1839 144.617 48.8639 144.617 41.8559C144.617 34.8478 149.321 30.6238 155.465 30.6238C159.401 30.6238 162.377 32.3519 164.201 35.0399L173.801 26.1119C171.017 21.9838 164.873 17.5678 154.793 17.5678C140.297 17.5678 129.545 27.3599 129.545 41.8559C129.545 56.3519 140.297 66.2399 154.793 66.2399Z" fill="#222222" />
    <path d="M193.385 65.0879V35.5199C195.305 32.9279 200.393 31.2958 204.233 31.2958C205.769 31.2958 207.017 31.3919 207.881 31.6799V17.4719C202.409 17.4719 196.457 20.6398 193.385 24.3839V18.7199H178.601V65.0879H193.385Z" fill="#222222" />
    <path d="M234.953 66.2399C242.057 66.2399 249.737 64.2239 254.345 60.0959L247.913 50.3998C245.225 52.8958 239.849 54.3359 236.585 54.3359C229.865 54.3359 226.025 50.8798 224.969 46.7518H257.993V43.3919C257.993 27.6479 248.009 17.5678 234.281 17.5678C219.785 17.5678 209.705 28.4158 209.705 41.8559C209.705 56.9279 220.649 66.2399 234.953 66.2399ZM243.881 36.6719H224.777C225.353 33.3119 227.849 29.4719 234.281 29.4719C241.097 29.4719 243.497 33.4079 243.881 36.6719Z" fill="#222222" />
    <path d="M305.499 65.0879V36.0958C305.499 21.6958 295.035 17.5678 283.899 17.5678C276.795 17.5678 268.827 19.6799 262.875 24.7679L268.347 35.0399C272.091 31.8719 276.699 30.0479 281.307 30.0479C287.259 30.0479 290.715 32.8319 290.715 36.8639V41.4718C287.931 38.0158 282.459 35.9998 276.315 35.9998C269.211 35.9998 260.379 39.7439 260.379 50.9759C260.379 61.3439 269.211 66.2399 276.315 66.2399C282.267 66.2399 287.835 63.9359 290.715 60.4799V65.0879H305.499ZM282.459 56.5439C278.619 56.5439 275.067 54.8159 275.067 51.1679C275.067 47.5199 278.619 45.7918 282.459 45.7918C285.723 45.7918 289.179 46.8478 290.715 49.0558V53.1839C289.179 55.3919 285.723 56.5439 282.459 56.5439Z" fill="#222222" />
    <path d="M331.878 66.2399C337.35 66.2399 340.998 64.8959 342.822 63.1679L339.942 52.0319C339.462 52.6079 337.83 53.1839 336.198 53.1839C333.702 53.1839 332.166 51.1679 332.166 48.4799V31.4879H341.574V18.7199H332.166V6.04785H317.382V18.7199H309.702V31.4879H317.382V52.6078C317.382 61.5359 322.47 66.2399 331.878 66.2399Z" fill="#222222" />
    <path d="M369.159 66.2399C385.095 66.2399 394.503 54.9119 394.503 41.8559C394.503 28.7998 385.095 17.5678 369.159 17.5678C353.415 17.5678 344.007 28.7998 344.007 41.8559C344.007 54.9119 353.415 66.2399 369.159 66.2399ZM369.159 53.1839C362.823 53.1839 359.175 48.0959 359.175 41.8559C359.175 35.7118 362.823 30.6238 369.159 30.6238C375.687 30.6238 379.335 35.7118 379.335 41.8559C379.335 48.0959 375.687 53.1839 369.159 53.1839Z" fill="#222222" />
    <path d="M415.16 65.0879V35.5199C417.08 32.9279 422.168 31.2958 426.008 31.2958C427.544 31.2958 428.792 31.3919 429.656 31.6799V17.4719C424.184 17.4719 418.232 20.6398 415.16 24.3839V18.7199H400.376V65.0879H415.16Z" fill="#222222" />
    <path d="M34.7302 66.24C50.1862 66.24 58.5382 57.216 62.6662 49.056L48.4582 42.336C46.3462 47.424 40.8742 51.648 34.7302 51.648C24.2662 51.648 16.8742 43.584 16.8742 33.12C16.8742 22.56 24.2662 14.592 34.7302 14.592C40.8742 14.592 46.3462 18.816 48.4582 23.904L62.6662 17.088C58.5382 8.736 50.1862 0 34.7302 0C15.0502 0 0.0742188 13.344 0.0742188 33.12C0.0742188 52.8 15.0502 66.24 34.7302 66.24Z" fill="#2E308E" />
    <path d="M105.999 65.088L130.095 1.056H111.375L95.631 47.232L79.791 1.056H61.071L85.167 65.088H105.999Z" fill="#2E308E" />
</svg>