<svg width="300" height="47" viewBox="0 0 300 47" fill="none" xmlns="http://www.w3.org/2000/svg">
<path d="M23.088 46.64C33.648 46.64 42.224 39.92 44.016 30.192H35.696C34.352 35.632 29.168 39.344 23.088 39.344C14.704 39.344 8.304 32.496 8.304 23.536C8.304 14.64 14.704 7.856 23.088 7.856C29.104 7.856 34.16 11.376 35.632 16.432H43.888C42.48 7.216 33.392 0.559998 23.088 0.559998C10.288 0.559998 0.56 10.48 0.56 23.536C0.56 36.656 10.288 46.64 23.088 46.64ZM46.143 1.2L63.039 46H69.247L86.143 1.2H78.207L66.175 34.032L54.143 1.2H46.143Z" fill="#06C7CC"/>
<path d="M105.306 46.64C112.922 46.64 119.514 41.648 120.346 34.544H113.05C112.282 37.68 109.018 39.792 105.306 39.792C100.122 39.792 96.1535 35.696 96.1535 30.384C96.1535 25.008 100.122 20.912 105.306 20.912C109.018 20.912 112.218 23.024 112.986 25.904H120.282C119.322 19.12 112.858 14.064 105.306 14.064C96.1535 14.064 89.1135 21.104 89.1135 30.384C89.1135 39.664 96.1535 46.64 105.306 46.64ZM126.276 46H133.38V29.296C133.38 23.664 137.092 20.528 141.636 20.528C142.66 20.528 143.748 20.72 144.772 20.976V14.448C143.812 14.256 142.788 14.064 141.828 14.064C138.116 14.064 135.236 15.856 133.38 18.864V14.704H126.276V46ZM162.12 46.64C169.736 46.64 175.752 42.352 176.84 35.696H169.8C169.16 38.64 166.088 40.56 162.056 40.56C156.872 40.56 153.224 37.168 152.584 32.048H177.096C177.16 31.344 177.224 30 177.224 29.36C177.224 20.656 170.44 14.064 161.992 14.064C152.968 14.064 145.864 21.104 145.864 30.256C145.864 39.536 152.968 46.64 162.12 46.64ZM152.968 26.864C154.12 22.512 157.384 20.08 161.672 20.08C165.96 20.08 169.288 22.96 169.672 26.864H152.968ZM214.269 14.704H207.101V20.336C204.861 16.368 201.021 14.064 195.965 14.064C187.581 14.064 180.989 21.296 180.989 30.32C180.989 39.344 187.581 46.64 195.965 46.64C201.021 46.64 204.861 44.336 207.101 40.368V46H214.269V14.704ZM188.029 30.32C188.029 25.072 192.189 20.848 197.501 20.848C202.941 20.848 207.037 24.944 207.037 30.32C207.037 35.76 202.941 39.856 197.501 39.856C192.189 39.856 188.029 35.632 188.029 30.32ZM236.24 46.384C237.392 46.384 238.992 46.256 240.08 46V39.408C239.376 39.6 238.544 39.664 237.776 39.664C234.32 39.664 231.888 38.064 231.888 34.096V21.488H240.08V14.704H231.888V6.32H224.72V14.704H218.768V21.488H224.72V34.224C224.72 42.16 229.328 46.384 236.24 46.384ZM258.682 14.064C249.53 14.064 242.49 21.104 242.49 30.384C242.49 39.6 249.53 46.64 258.682 46.64C267.834 46.64 274.938 39.6 274.938 30.384C274.938 21.104 267.834 14.064 258.682 14.064ZM249.402 30.384C249.402 25.008 253.434 20.848 258.682 20.848C263.866 20.848 268.026 25.008 268.026 30.384C268.026 35.696 263.866 39.792 258.682 39.792C253.434 39.792 249.402 35.696 249.402 30.384ZM280.901 46H288.005V29.296C288.005 23.664 291.717 20.528 296.261 20.528C297.285 20.528 298.373 20.72 299.397 20.976V14.448C298.437 14.256 297.413 14.064 296.453 14.064C292.741 14.064 289.861 15.856 288.005 18.864V14.704H280.901V46Z" fill="#000048"/>
</svg>
