<?xml version="1.0" encoding="UTF-8"?>
<svg width="752pt" height="752pt" version="1.1" viewBox="0 0 752 752" xmlns="http://www.w3.org/2000/svg">
 <path d="m376 162.89c117.7 0 213.11 95.414 213.11 213.11 0 116.52-93.516 211.2-209.59 213.09l-3.5273 0.027343c-117.7 0-213.11-95.414-213.11-213.11 0-117.7 95.414-213.11 213.11-213.11zm70.582 217.29c-18.508 18.484-44.062 29.914-72.285 29.914-27.523 0-52.508-10.867-70.891-28.551-33.059 22.836-54.832 60.848-55.266 103.96l-0.007813 1.3086v32.141c33.934 30.371 78.742 48.84 127.87 48.84 49.129 0 93.941-18.469 127.87-48.844l-0.003906-32.137c0-44.531-22.762-83.742-57.285-106.64zm-72.285-157.62c-47.078 0-85.246 38.164-85.246 85.242 0 47.082 38.168 85.246 85.246 85.246s85.246-38.164 85.246-85.246c0-47.078-38.168-85.242-85.246-85.242z" fill-rule="evenodd"/>
</svg>
